<?xml version="1.0" standalone="no"?>
<!DOCTYPE svg PUBLIC "-//W3C//DTD SVG 20010904//EN"
 "http://www.w3.org/TR/2001/REC-SVG-20010904/DTD/svg10.dtd">
<svg version="1.0" xmlns="http://www.w3.org/2000/svg"
 width="600.000000pt" height="600.000000pt" viewBox="0 0 600.000000 600.000000"
 preserveAspectRatio="xMidYMid meet">
<metadata>
Created by potrace 1.11, written by Peter Selinger 2001-2013
</metadata>
<g transform="translate(0.000000,600.000000) scale(0.100000,-0.100000)"
fill="#000000" stroke="none">
<path d="M5765 5993 c-616 -24 -1286 -160 -1866 -378 -782 -295 -1487 -741
-2064 -1305 -143 -140 -255 -257 -335 -350 -36 -41 -68 -77 -71 -80 -3 -3 -35
-41 -70 -85 -466 -571 -832 -1241 -1059 -1937 -179 -551 -271 -1082 -295
-1705 l-6 -153 2259 0 2259 0 2 78 c9 382 212 798 513 1050 110 91 182 139
303 199 178 90 360 140 550 151 l110 7 3 2257 2 2258 -87 -3 c-49 -1 -115 -3
-148 -4z"/>
</g>
</svg>
